<?xml version="1.0" encoding="UTF-8" standalone="no"?>
<!-- Created with Inkscape (http://www.inkscape.org/) -->

<svg
   xmlns:dc="http://purl.org/dc/elements/1.1/"
   xmlns:cc="http://creativecommons.org/ns#"
   xmlns:rdf="http://www.w3.org/1999/02/22-rdf-syntax-ns#"
   xmlns:svg="http://www.w3.org/2000/svg"
   xmlns="http://www.w3.org/2000/svg"
   xmlns:xlink="http://www.w3.org/1999/xlink"
   xmlns:sodipodi="http://sodipodi.sourceforge.net/DTD/sodipodi-0.dtd"
   xmlns:inkscape="http://www.inkscape.org/namespaces/inkscape"
   width="210mm"
   height="297mm"
   id="svg28208"
   version="1.1"
   inkscape:version="0.48.3.1 r9886"
   sodipodi:docname="DBaaS.svg"
   inkscape:export-filename="/home/bjoernh/Daten/JSC/Projekte/CloudCaps/BestPractices_Workshop_CF14/images/DBaaS.png"
   inkscape:export-xdpi="105.26"
   inkscape:export-ydpi="105.26">
  <defs
     id="defs28210">
    <marker
       inkscape:stockid="Arrow2Lstart"
       orient="auto"
       refY="0.0"
       refX="0.0"
       id="Arrow2Lstart"
       style="overflow:visible">
      <path
         id="path30552"
         style="fill-rule:evenodd;stroke-width:0.62500000;stroke-linejoin:round"
         d="M 8.7185878,4.0337352 L -2.2072895,0.016013256 L 8.7185884,-4.0017078 C 6.9730900,-1.6296469 6.9831476,1.6157441 8.7185878,4.0337352 z "
         transform="scale(1.1) translate(1,0)" />
    </marker>
    <marker
       inkscape:stockid="Arrow1Lstart"
       orient="auto"
       refY="0.0"
       refX="0.0"
       id="Arrow1Lstart"
       style="overflow:visible">
      <path
         id="path30534"
         d="M 0.0,0.0 L 5.0,-5.0 L -12.5,0.0 L 5.0,5.0 L 0.0,0.0 z "
         style="fill-rule:evenodd;stroke:#000000;stroke-width:1.0pt"
         transform="scale(0.8) translate(12.5,0)" />
    </marker>
    <marker
       inkscape:stockid="Arrow1Lend"
       orient="auto"
       refY="0.0"
       refX="0.0"
       id="Arrow1Lend"
       style="overflow:visible;">
      <path
         id="path30537"
         d="M 0.0,0.0 L 5.0,-5.0 L -12.5,0.0 L 5.0,5.0 L 0.0,0.0 z "
         style="fill-rule:evenodd;stroke:#000000;stroke-width:1.0pt;"
         transform="scale(0.8) rotate(180) translate(12.5,0)" />
    </marker>
    <radialGradient
       r="29.986"
       gradientTransform="matrix(1.25,0,0,1.2501,-105.8,247.98)"
       cx="546.31"
       cy="307.28"
       gradientUnits="userSpaceOnUse"
       id="radialGradient5692">
      <stop
         offset="0"
         stop-color="#ccdff4"
         id="stop5688" />
      <stop
         offset="1"
         stop-color="#6898d2"
         id="stop5690" />
    </radialGradient>
    <linearGradient
       gradientUnits="userSpaceOnUse"
       gradientTransform="scale(1.0229627,0.97755274)"
       id="linearGradient1507"
       y2="309.79403"
       xlink:href="#linearGradient1502"
       y1="175.80637"
       x2="205.01364"
       x1="182.83073" />
    <linearGradient
       id="linearGradient1502">
      <stop
         id="stop1503"
         stop-opacity="0"
         offset="0" />
      <stop
         id="stop1506"
         stop-opacity=".28125"
         offset="1" />
    </linearGradient>
    <linearGradient
       id="linearGradient29237"
       y2="1.45"
       xlink:href="#linearGradient1502"
       y1="0.34375"
       x2="0.86813003"
       x1="0.68497998" />
    <linearGradient
       id="linearGradient29239">
      <stop
         id="stop29241"
         stop-opacity="0"
         offset="0" />
      <stop
         id="stop29243"
         stop-opacity=".28125"
         offset="1" />
    </linearGradient>
    <linearGradient
       id="linearGradient29245"
       y2="1.45"
       xlink:href="#linearGradient1502"
       y1="0.34375"
       x2="0.86813003"
       x1="0.68497998" />
    <linearGradient
       id="linearGradient29247">
      <stop
         id="stop29249"
         stop-opacity="0"
         offset="0" />
      <stop
         id="stop29251"
         stop-opacity=".28125"
         offset="1" />
    </linearGradient>
    <linearGradient
       id="linearGradient29253"
       y2="1.45"
       xlink:href="#linearGradient1502"
       y1="0.34375"
       x2="0.86813003"
       x1="0.68497998" />
    <linearGradient
       id="linearGradient29255">
      <stop
         id="stop29257"
         stop-opacity="0"
         offset="0" />
      <stop
         id="stop29259"
         stop-opacity=".28125"
         offset="1" />
    </linearGradient>
    <linearGradient
       id="linearGradient29261"
       y2="1.45"
       xlink:href="#linearGradient1502"
       y1="0.34375"
       x2="0.86813003"
       x1="0.68497998" />
    <linearGradient
       id="linearGradient29263">
      <stop
         id="stop29265"
         stop-opacity="0"
         offset="0" />
      <stop
         id="stop29267"
         stop-opacity=".28125"
         offset="1" />
    </linearGradient>
    <linearGradient
       id="linearGradient29269"
       y2="1.45"
       xlink:href="#linearGradient1502"
       y1="0.34375"
       x2="0.86813003"
       x1="0.68497998" />
    <linearGradient
       id="linearGradient29271">
      <stop
         id="stop29273"
         stop-opacity="0"
         offset="0" />
      <stop
         id="stop29275"
         stop-opacity=".28125"
         offset="1" />
    </linearGradient>
    <linearGradient
       gradientUnits="userSpaceOnUse"
       gradientTransform="scale(1.0821456,0.92409006)"
       id="linearGradient1458"
       y1="-30.808421"
       x2="40.875862"
       x1="55.599572"
       y2="218.57704">
      <stop
         id="stop1455"
         offset="0" />
      <stop
         id="stop1456"
         stop-color="#fff"
         offset="1" />
    </linearGradient>
    <linearGradient
       gradientUnits="userSpaceOnUse"
       gradientTransform="scale(1.3295537,0.75213211)"
       id="linearGradient1471"
       y1="47.811247"
       x2="37.546256"
       x1="64.114094"
       y2="140.38113">
      <stop
         id="stop1547"
         offset="0" />
      <stop
         id="stop1548"
         stop-color="#9a9a9a"
         offset="1" />
    </linearGradient>
    <linearGradient
       gradientUnits="userSpaceOnUse"
       gradientTransform="scale(1.1621157,0.86049954)"
       id="linearGradient1555"
       y2="56.942168"
       xlink:href="#linearGradient1494"
       y1="92.633835"
       x2="77.121136"
       x1="83.125004" />
    <linearGradient
       id="linearGradient1494">
      <stop
         id="stop1495"
         stop-color="#9d8f6a"
         offset="0" />
      <stop
         id="stop1496"
         stop-color="#fff"
         offset=".4962" />
      <stop
         id="stop1498"
         stop-color="#bfb5a5"
         offset=".5254" />
      <stop
         id="stop1497"
         stop-color="#f7f7f7"
         offset="1" />
    </linearGradient>
    <linearGradient
       gradientUnits="userSpaceOnUse"
       gradientTransform="scale(1.1621157,0.86049954)"
       id="linearGradient1468"
       y2="86.571878"
       xlink:href="#linearGradient1461"
       y1="90.158612"
       x2="99.631213"
       x1="48.888432" />
    <linearGradient
       id="linearGradient1461">
      <stop
         id="stop1462"
         stop-color="#fff"
         stop-opacity="0"
         offset="0" />
      <stop
         id="stop1464"
         stop-color="#fff"
         offset=".5" />
      <stop
         id="stop1463"
         stop-color="#fff"
         stop-opacity="0"
         offset="1" />
    </linearGradient>
    <linearGradient
       gradientUnits="userSpaceOnUse"
       gradientTransform="scale(1.6363651,0.61111055)"
       id="linearGradient1550"
       y2="144.17545"
       xlink:href="#linearGradient1502"
       y1="184.34574"
       x2="55.957162"
       x1="57.724107" />
    <linearGradient
       id="linearGradient29295">
      <stop
         id="stop29297"
         stop-opacity="0"
         offset="0" />
      <stop
         id="stop29299"
         stop-opacity=".28125"
         offset="1" />
    </linearGradient>
    <linearGradient
       gradientUnits="userSpaceOnUse"
       gradientTransform="scale(1.1625126,0.86020575)"
       id="linearGradient1467"
       y2="88.112151"
       xlink:href="#linearGradient1461"
       y1="85.876205"
       x2="109.2828"
       x1="55.045555" />
    <linearGradient
       id="linearGradient29302">
      <stop
         id="stop29304"
         stop-color="#fff"
         stop-opacity="0"
         offset="0" />
      <stop
         id="stop29306"
         stop-color="#fff"
         offset=".5" />
      <stop
         id="stop29308"
         stop-color="#fff"
         stop-opacity="0"
         offset="1" />
    </linearGradient>
    <linearGradient
       gradientUnits="userSpaceOnUse"
       gradientTransform="scale(1.1617929,0.86073857)"
       id="linearGradient1465"
       y2="107.53177"
       xlink:href="#linearGradient1494"
       y1="28.158089"
       x2="66.679599"
       x1="66.679599" />
    <linearGradient
       id="linearGradient29311">
      <stop
         id="stop29313"
         stop-color="#9d8f6a"
         offset="0" />
      <stop
         id="stop29315"
         stop-color="#fff"
         offset=".4962" />
      <stop
         id="stop29317"
         stop-color="#bfb5a5"
         offset=".5254" />
      <stop
         id="stop29319"
         stop-color="#f7f7f7"
         offset="1" />
    </linearGradient>
    <linearGradient
       gradientUnits="userSpaceOnUse"
       gradientTransform="scale(1.1617929,0.86073857)"
       id="linearGradient1466"
       y2="76.102079"
       xlink:href="#linearGradient1461"
       y1="77.449764"
       x2="109.62885"
       x1="47.242827" />
    <linearGradient
       id="linearGradient29322">
      <stop
         id="stop29324"
         stop-color="#fff"
         stop-opacity="0"
         offset="0" />
      <stop
         id="stop29326"
         stop-color="#fff"
         offset=".5" />
      <stop
         id="stop29328"
         stop-color="#fff"
         stop-opacity="0"
         offset="1" />
    </linearGradient>
    <linearGradient
       gradientUnits="userSpaceOnUse"
       gradientTransform="scale(1.1795983,0.8477462)"
       id="linearGradient1469"
       y2="102.17777"
       xlink:href="#linearGradient1494"
       y1="69.208562"
       x2="85.29293"
       x1="71.901524" />
    <linearGradient
       id="linearGradient29331">
      <stop
         id="stop29333"
         stop-color="#9d8f6a"
         offset="0" />
      <stop
         id="stop29335"
         stop-color="#fff"
         offset=".4962" />
      <stop
         id="stop29337"
         stop-color="#bfb5a5"
         offset=".5254" />
      <stop
         id="stop29339"
         stop-color="#f7f7f7"
         offset="1" />
    </linearGradient>
    <linearGradient
       gradientUnits="userSpaceOnUse"
       gradientTransform="scale(0.9425405,1.0609624)"
       id="linearGradient1460"
       y2="29.785304"
       xlink:href="#linearGradient1461"
       y1="97.35308"
       x2="25.402595"
       x1="55.241651" />
    <linearGradient
       id="linearGradient29342">
      <stop
         id="stop29344"
         stop-color="#fff"
         stop-opacity="0"
         offset="0" />
      <stop
         id="stop29346"
         stop-color="#fff"
         offset=".5" />
      <stop
         id="stop29348"
         stop-color="#fff"
         stop-opacity="0"
         offset="1" />
    </linearGradient>
    <linearGradient
       gradientUnits="userSpaceOnUse"
       gradientTransform="scale(1.2892903,0.77562048)"
       id="linearGradient1500"
       y2="160.91298"
       xlink:href="#linearGradient1494"
       y1="101.89938"
       x2="53.645687"
       x1="53.645687" />
    <linearGradient
       id="linearGradient29351">
      <stop
         id="stop29353"
         stop-color="#9d8f6a"
         offset="0" />
      <stop
         id="stop29355"
         stop-color="#fff"
         offset=".4962" />
      <stop
         id="stop29357"
         stop-color="#bfb5a5"
         offset=".5254" />
      <stop
         id="stop29359"
         stop-color="#f7f7f7"
         offset="1" />
    </linearGradient>
    <linearGradient
       gradientUnits="userSpaceOnUse"
       gradientTransform="scale(1.2039578,0.83059386)"
       id="linearGradient1501"
       y2="101.29099"
       xlink:href="#linearGradient1494"
       y1="56.76179"
       x2="71.685783"
       x1="69.364836" />
    <linearGradient
       id="linearGradient29362">
      <stop
         id="stop29364"
         stop-color="#9d8f6a"
         offset="0" />
      <stop
         id="stop29366"
         stop-color="#fff"
         offset=".4962" />
      <stop
         id="stop29368"
         stop-color="#bfb5a5"
         offset=".5254" />
      <stop
         id="stop29370"
         stop-color="#f7f7f7"
         offset="1" />
    </linearGradient>
    <linearGradient
       id="linearGradient1457"
       y1="0.60000002"
       x2="0.043956"
       x1="0.48717999"
       y2="0.93684">
      <stop
         id="stop1552"
         stop-color="#fff"
         stop-opacity="0"
         offset="0" />
      <stop
         id="stop1553"
         stop-color="#fff"
         offset="1" />
    </linearGradient>
    <linearGradient
       gradientUnits="userSpaceOnUse"
       gradientTransform="scale(1.0307736,0.97014514)"
       y2="302.01306"
       x2="200.26142"
       y1="178.66753"
       x1="179.84041"
       id="linearGradient29397"
       xlink:href="#linearGradient1502"
       inkscape:collect="always" />
    <linearGradient
       gradientUnits="userSpaceOnUse"
       gradientTransform="scale(1.0344674,0.966681)"
       y2="299.25022"
       x2="198.40605"
       y1="179.87998"
       x1="178.64319"
       id="linearGradient29399"
       xlink:href="#linearGradient1502"
       inkscape:collect="always" />
    <linearGradient
       gradientUnits="userSpaceOnUse"
       gradientTransform="scale(1.0266574,0.97403476)"
       y2="305.85767"
       x2="202.66228"
       y1="177.20107"
       x1="181.36197"
       id="linearGradient29401"
       xlink:href="#linearGradient1502"
       inkscape:collect="always" />
    <linearGradient
       gradientUnits="userSpaceOnUse"
       gradientTransform="scale(1.0229627,0.97755274)"
       y2="309.79403"
       x2="205.01364"
       y1="175.80637"
       x1="182.83073"
       id="linearGradient29403"
       xlink:href="#linearGradient1502"
       inkscape:collect="always" />
    <linearGradient
       gradientUnits="userSpaceOnUse"
       gradientTransform="scale(1.0368827,0.96442924)"
       y2="298.1774"
       x2="197.19324"
       y1="181.4305"
       x1="177.86469"
       id="linearGradient29405"
       xlink:href="#linearGradient1502"
       inkscape:collect="always" />
    <linearGradient
       gradientUnits="userSpaceOnUse"
       gradientTransform="scale(1.7091362,0.58509087)"
       y2="235.62107"
       x2="10.584665"
       y1="221.76385"
       x1="28.818417"
       id="linearGradient29407"
       xlink:href="#linearGradient1457"
       inkscape:collect="always" />
  </defs>
  <sodipodi:namedview
     id="base"
     pagecolor="#ffffff"
     bordercolor="#666666"
     borderopacity="1.0"
     inkscape:pageopacity="0.0"
     inkscape:pageshadow="2"
     inkscape:zoom="0.7"
     inkscape:cx="399.96691"
     inkscape:cy="386.01727"
     inkscape:document-units="px"
     inkscape:current-layer="layer1"
     showgrid="false"
     inkscape:window-width="1380"
     inkscape:window-height="935"
     inkscape:window-x="303"
     inkscape:window-y="128"
     inkscape:window-maximized="0" />
  <metadata
     id="metadata28213">
    <rdf:RDF>
      <cc:Work
         rdf:about="">
        <dc:format>image/svg+xml</dc:format>
        <dc:type
           rdf:resource="http://purl.org/dc/dcmitype/StillImage" />
        <dc:title></dc:title>
      </cc:Work>
    </rdf:RDF>
  </metadata>
  <g
     inkscape:label="Ebene 1"
     inkscape:groupmode="layer"
     id="layer1">
    <g
       id="g29684"
       transform="translate(12.926364,9.961704)">
      <g
         style="fill-rule:evenodd;stroke-miterlimit:10"
         id="layer1-4"
         transform="translate(-458.56965,-204.28808)"
         stroke-miterlimit="10">
        <path
           style="fill:#e1e1e1;stroke:#7d7d7d;stroke-width:3.75"
           inkscape:connector-curvature="0"
           id="path812"
           d="m 887.98,726.08 15,-15 h 50 l 15,15 v 120 h -80 z" />
        <path
           style="fill:#bdbdbd;stroke:#9c9c9c;stroke-width:1.25"
           inkscape:connector-curvature="0"
           id="path814"
           d="m 895.48,728.58 12.5,-12.5 h 40 l 12.5,12.5 z" />
        <path
           style="fill:#bdbdbd;stroke:#9c9c9c;stroke-width:1.25;stroke-linejoin:round"
           inkscape:connector-curvature="0"
           id="path816"
           d="m 896.73,731.08 h 62.5 c 0.69325,0 1.25,0.55665 1.25,1.25 v 107.5 c 0,0.6885 -0.55675,1.25 -1.25,1.25 h -62.5 c -0.6885,0 -1.25,-0.5615 -1.25,-1.25 v -107.5 c 0,-0.69335 0.5615,-1.25 1.25,-1.25" />
        <path
           style="fill:#9c9c9c;stroke:#7d7d7d;stroke-width:3.75;stroke-linejoin:round"
           inkscape:connector-curvature="0"
           id="path818"
           d="m 901.73,738.58 h 52.5 c 0.69325,0 1.25,0.55665 1.25,1.25 v 12.5 c 0,0.68847 -0.55675,1.25 -1.25,1.25 h -52.5 c -0.6885,0 -1.25,-0.56153 -1.25,-1.25 v -12.5 c 0,-0.69335 0.5615,-1.25 1.25,-1.25" />
        <path
           style="fill:#9c9c9c;stroke:#7d7d7d;stroke-width:3.75;stroke-linejoin:round"
           inkscape:connector-curvature="0"
           id="path820"
           d="m 901.73,761.08 h 52.5 c 0.69325,0 1.25,0.55665 1.25,1.25 v 12.5 c 0,0.68847 -0.55675,1.25 -1.25,1.25 h -52.5 c -0.6885,0 -1.25,-0.56153 -1.25,-1.25 v -12.5 c 0,-0.69335 0.5615,-1.25 1.25,-1.25" />
        <path
           style="fill:#9c9c9c;stroke:#7d7d7d;stroke-width:3.75;stroke-linejoin:round"
           inkscape:connector-curvature="0"
           id="path822"
           d="m 924.23,788.58 h 30 c 0.68849,0 1.25,0.55665 1.25,1.25 v 10 c 0,0.68847 -0.56151,1.25 -1.25,1.25 h -30 c -0.69325,0 -1.25,-0.56153 -1.25,-1.25 v -10 c 0,-0.69335 0.55675,-1.25 1.25,-1.25" />
        <path
           style="fill:#c51900;stroke:#7d7d7d;stroke-width:2.5;stroke-linejoin:round"
           inkscape:connector-curvature="0"
           id="path824"
           d="m 915.48,794.83 c 0,8.335 -12.5,8.335 -12.5,0 0,-8.335 12.5,-8.335 12.5,0" />
        <path
           style="fill:#9c9c9c;stroke:#7d7d7d;stroke-width:2.5"
           inkscape:connector-curvature="0"
           id="path826"
           d="m 912.98,812.38 h 5 v 27.5 h -5 z" />
        <path
           style="fill:#9c9c9c;stroke:#7d7d7d;stroke-width:2.5"
           inkscape:connector-curvature="0"
           id="path828"
           d="m 922.98,812.38 h 5 v 27.5 h -5 z" />
        <path
           style="fill:#9c9c9c;stroke:#7d7d7d;stroke-width:2.5"
           inkscape:connector-curvature="0"
           id="path830"
           d="m 932.98,812.38 h 5 v 27.5 h -5 z" />
        <path
           style="fill:#9c9c9c;stroke:#7d7d7d;stroke-width:2.5"
           inkscape:connector-curvature="0"
           id="path832"
           d="m 942.98,812.38 h 5 v 27.5 h -5 z" />
        <path
           style="fill:#9c9c9c;stroke:#7d7d7d;stroke-width:2.5"
           inkscape:connector-curvature="0"
           id="path834"
           d="m 952.98,812.44 h 5 v 27.5 h -5 z" />
        <path
           style="fill:#003366;stroke:#003366;stroke-width:2.5"
           inkscape:connector-curvature="0"
           id="path836"
           d="m 842.82,820.09 h 67.5 v 25 l -0.38075,1.7433 -0.71775,1.4942 -1.3428,1.5332 -1.5575,1.2695 -3.6572,2.0265 -2.9394,1.1718 -3.4228,0.97175 -6.5772,1.2305 -7.6025,0.6005 -8.5938,-0.05 -6.4014,-0.254 -5.3027,-1.001 -4.6973,-1.1962 -4.7998,-1.704 -3.711,-1.792 -2.0898,-1.4062 -2.0752,-1.9825 -1.6308,-2.6562 z" />
        <path
           style="fill:#288fb0;stroke:#00a3ff;stroke-width:2.5"
           inkscape:connector-curvature="0"
           id="path838"
           d="m 910.32,818.84 c 0,6.2109 -15.112,11.25 -33.75,11.25 -18.638,0 -33.75,-5.0391 -33.75,-11.25 0,-6.2158 15.112,-11.25 33.75,-11.25 18.638,0 33.75,5.0342 33.75,11.25" />
      </g>
      <text
         sodipodi:linespacing="125%"
         id="text29644"
         y="695.21936"
         x="388.57141"
         style="font-size:10px;font-style:normal;font-variant:normal;font-weight:normal;font-stretch:normal;line-height:125%;letter-spacing:0px;word-spacing:0px;fill:#000000;fill-opacity:1;stroke:none;font-family:Arial;-inkscape-font-specification:Arial"
         xml:space="preserve"><tspan
           style="font-size:32px;font-style:normal;font-variant:normal;font-weight:normal;font-stretch:normal;text-align:start;line-height:125%;writing-mode:lr-tb;text-anchor:start;font-family:Arial;-inkscape-font-specification:Arial"
           y="695.21936"
           x="388.57141"
           id="tspan29646"
           sodipodi:role="line">MySQL VM</tspan></text>
    </g>
    <g
       id="g29731">
      <g
         id="g29200"
         transform="translate(67.169848,493.34628)">
        <g
           id="g1583"
           transform="matrix(1.0845,0,0,1.0434,-102.29,-115.32)"
           style="fill:url(#linearGradient1507);fill-rule:evenodd;stroke-width:1pt">
          <path
             id="path1557"
             d="m 187.32,244.32 34.26,-85.19 v -10.81 l -73.47,-12.17 -41.46,80.22 0.9,10.37 79.77,17.58 z"
             inkscape:connector-curvature="0"
             style="fill:url(#linearGradient29397)" />
          <path
             id="path1562"
             d="m 108.34,216.72 c 0.72,2.87 -0.69,8.43 2.88,9.09 25.02,5.51 50.04,11.02 75.06,16.53 11.2,-27.89 22.4,-55.79 33.6,-83.68 -0.16,-2.83 0.71,-7.02 -0.98,-9.04 -23.28,-3.86 -46.56,-7.72 -69.84,-11.59 -13.57,26.23 -27.14,52.46 -40.72,78.69 z"
             inkscape:connector-curvature="0"
             style="fill:url(#linearGradient29399)" />
          <path
             id="path1567"
             d="m 146.69,134.03 c -14.06,27.52 -28.35,55.02 -42.28,82.53 0.5,4.08 -0.13,8.96 2.21,12.35 27.36,6 54.71,12.03 82.07,18.03 11.71,-29.27 23.51,-58.52 35.12,-87.82 v -12.81 c -25.65,-4.19 -51.29,-8.45 -76.93,-12.65 l -0.19,0.37 z"
             inkscape:connector-curvature="0"
             style="fill:url(#linearGradient29401)" />
          <path
             id="path1576"
             d="m 145.44,131.53 c -14.4,28.39 -29.02,56.77 -43.28,85.16 0.48,4.95 0.04,10.8 3.96,14.47 27.98,6.13 55.96,12.28 83.94,18.4 12.01,-30.14 24.1,-60.27 36,-90.44 v -14.81 c -26.81,-4.35 -53.62,-8.78 -80.44,-13.15 l -0.18,0.37 z"
             inkscape:connector-curvature="0"
             style="fill:url(#linearGradient29403)" />
          <path
             id="path1582"
             d="m 109.47,217.58 c 0.32,3.12 -0.13,8.5 4.37,8.34 23.92,5.28 47.84,10.57 71.75,15.85 11.06,-27.57 22.11,-55.13 33.16,-82.69 0.04,-2.97 1.15,-8.42 -3.43,-8.16 -21.88,-3.65 -43.75,-7.29 -65.63,-10.93 -13.41,25.86 -26.82,51.72 -40.22,77.59 z"
             inkscape:connector-curvature="0"
             style="fill:url(#linearGradient29405)" />
        </g>
        <path
           id="path1432"
           d="M 101.4,144.2 138.55,51.818 V 40.088 L 58.881,26.891 13.914,113.89 14.892,125.13 101.4,144.2 z"
           transform="translate(-1.7678,-5.3033)"
           inkscape:connector-curvature="0"
           style="fill:#525252;fill-rule:evenodd;stroke-width:1pt" />
        <path
           id="path1433"
           d="M 14.862,113.55 100.92,132.95 138.06,41.065 59.248,27.746 14.862,113.55 z"
           transform="translate(-1.7678,-5.3033)"
           inkscape:connector-curvature="0"
           style="fill:url(#linearGradient1458);fill-rule:evenodd;stroke-width:1pt" />
        <path
           id="path1470"
           d="m 41.774,77.235 -7.82,2.932 -12.708,24.923 5.865,10.27 34.214,7.82 5.865,-2.93 3.91,1.46 1.735,4.01 21.994,4.88 10.001,-9.86 10.75,-26.398 h -7.33 c -2.45,0 -18.739,10.178 -38.127,5.376 C 50.246,94.912 43.892,80.493 41.774,77.235 z"
           transform="translate(-1.7678,-5.3033)"
           inkscape:connector-curvature="0"
           style="fill:url(#linearGradient1471);fill-rule:evenodd;stroke-width:1pt" />
        <path
           id="path1439"
           d="M 102.49,42.321 C 83.31,37.597 53.76,42.09 45.12,62.366 c -8.641,19.585 12.269,35.023 26.266,37.674 15.035,2.65 40.784,-2.882 49.424,-19.702 8.99,-16.82 1.21,-33.294 -18.32,-38.017 z"
           transform="translate(-1.7678,-5.3033)"
           inkscape:connector-curvature="0"
           style="fill:url(#linearGradient1555);fill-rule:evenodd;stroke:url(#linearGradient1468);stroke-width:0.89126003" />
        <path
           id="path1554"
           d="m 108.23,108.45 h -5.07 C 81.305,120.94 45.009,109.62 37.593,92.059 l -8.196,0.39 3.122,-7.805 7.416,-1.952 c 6.244,14.961 32.784,31.488 65.565,16.783 l 7.03,-0.391 -4.3,9.366 z"
           transform="translate(-1.7678,-5.3033)"
           inkscape:connector-curvature="0"
           style="fill:url(#linearGradient1550);fill-rule:evenodd;stroke-width:1pt" />
        <path
           id="path1438"
           d="M 102.74,40.169 C 83.555,35.445 54.004,39.938 45.364,60.214 c -8.64,19.585 12.269,35.023 26.267,37.672 15.034,2.654 40.779,-2.88 49.419,-19.7 8.99,-16.82 1.21,-33.294 -18.31,-38.017 z"
           transform="translate(-1.7678,-5.3033)"
           inkscape:connector-curvature="0"
           style="fill-opacity:0.25;fill-rule:evenodd;stroke:url(#linearGradient1467);stroke-width:0.72149998" />
        <path
           id="path1437"
           d="M 103.29,37.189 C 84.109,32.465 54.559,36.958 45.919,57.234 c -8.64,19.585 12.269,35.023 26.267,37.672 15.034,2.65 40.784,-2.88 49.424,-19.7 8.98,-16.82 1.21,-33.294 -18.32,-38.017 z"
           transform="translate(-1.7678,-5.3033)"
           inkscape:connector-curvature="0"
           style="fill:url(#linearGradient1465);fill-rule:evenodd;stroke:url(#linearGradient1466);stroke-width:1.01859999" />
        <path
           id="path1435"
           d="m 83.623,51.921 c -8.894,0.79 -13.659,7.547 -13.331,12.057 0.277,3.82 2.482,11.919 14.996,10.866 C 97.63,73.803 99.512,65.523 98.84,61.038 98.562,57.218 91.988,50.996 83.623,51.921 z"
           transform="translate(-1.7678,-5.3033)"
           inkscape:connector-curvature="0"
           style="fill-opacity:0.45833004;fill-rule:evenodd;stroke-width:1pt" />
        <path
           id="path1436"
           d="m 83.617,52.012 c -8.894,0.791 -13.659,7.547 -13.332,12.057 0.278,3.821 5.939,9.416 14.981,8.268 C 94.321,71.362 99.505,65.615 98.833,61.13 98.556,57.309 91.982,51.087 83.617,52.012 z"
           transform="translate(-1.7678,-5.3033)"
           inkscape:connector-curvature="0"
           style="fill:url(#linearGradient1469);fill-rule:evenodd;stroke-width:1pt" />
        <path
           id="path1440"
           d="m 42.86,80.94 -9.043,7.821 c -6.235,5.61 -0.532,18.559 5.621,22.479 l 0.245,5.63 4.643,1.22 2.688,-4.16 11.975,2.69 5.132,-12.22 C 45.915,107.86 40.172,94.708 50.069,89.738 46.444,87.05 44.285,84.362 42.86,80.94 z"
           transform="translate(-1.7678,-5.3033)"
           inkscape:connector-curvature="0"
           style="fill:url(#linearGradient1460);fill-rule:evenodd" />
        <path
           id="path1434"
           d="m 61.711,89.204 c -3.036,1.439 -7.484,0.23 -10.02,2.419 -2.684,2.362 -4.604,6.624 0.828,10.537 5.63,4.09 10.701,1.82 14.908,-2.07 L 93.811,75.725 90.503,75.552 61.711,89.204 z"
           transform="translate(-1.7678,-5.3033)"
           inkscape:connector-curvature="0"
           style="fill-opacity:0.30208004;fill-rule:evenodd;stroke-width:1pt" />
        <path
           id="path1441"
           d="m 84.649,57.803 c -2.311,-0.035 -6.524,0.997 -6.567,4.148 0.079,3.151 4.977,4.824 7.776,4.493 2.922,-0.331 5.559,-1.983 5.357,-5.012 -0.201,-2.906 -4.377,-3.593 -6.566,-3.629 z"
           transform="translate(-1.7678,-5.3033)"
           inkscape:connector-curvature="0"
           style="fill:#fff8d2;fill-opacity:0.54167002;fill-rule:evenodd;stroke-width:1pt" />
        <path
           id="path1499"
           d="m 60.677,88.294 c -3.244,1.439 -7.517,0.23 -10.369,2.419 -3.024,2.362 -5.558,6.624 -0.691,10.537 5.04,4.09 10.44,1.82 15.207,-2.07 L 94.72,74.815 91.437,74.642 60.677,88.294 z"
           transform="translate(-1.7678,-5.3033)"
           inkscape:connector-curvature="0"
           style="fill:url(#linearGradient1500);fill-rule:evenodd;stroke-width:1pt" />
        <path
           id="path1508"
           d="m 86.618,54.903 c -0.968,0 -1.751,0.532 -1.751,1.189 0,0.656 0.783,1.188 1.751,1.188 0.967,0 1.75,-0.532 1.75,-1.188 0,-0.657 -0.783,-1.189 -1.75,-1.189 z m -7.884,1.412 c -0.967,0 -1.75,0.531 -1.75,1.188 0,0.657 0.783,1.188 1.75,1.188 0.968,0 1.762,-0.531 1.762,-1.188 0,-0.657 -0.794,-1.188 -1.762,-1.188 z m 15.099,2.62 c -0.968,0 -1.762,0.532 -1.762,1.189 0,0.656 0.794,1.188 1.762,1.188 0.967,0 1.75,-0.532 1.75,-1.188 0,-0.657 -0.783,-1.189 -1.75,-1.189 z m -17.847,3.183 c -0.967,0 -1.75,0.532 -1.75,1.189 0,0.656 0.783,1.188 1.75,1.188 0.968,0 1.751,-0.532 1.751,-1.188 0,-0.657 -0.783,-1.189 -1.751,-1.189 z m 14.42,3.544 c -0.968,0 -1.751,0.532 -1.751,1.189 0,0.656 0.783,1.188 1.751,1.188 0.967,0 1.75,-0.532 1.75,-1.188 0,-0.657 -0.783,-1.189 -1.75,-1.189 z m -8.181,1.581 c -0.968,0 -1.761,0.532 -1.761,1.189 0,0.656 0.793,1.198 1.761,1.198 0.968,0 1.751,-0.542 1.751,-1.198 0,-0.657 -0.783,-1.189 -1.751,-1.189 z"
           transform="translate(-1.7678,-5.3033)"
           inkscape:connector-curvature="0"
           style="fill:url(#linearGradient1501);fill-rule:evenodd;stroke-width:1pt" />
        <path
           id="path1589"
           d="m 15,115.31 0.625,8.75 69.687,15.32 L 15,115.31 z"
           transform="translate(-1.7678,-5.3033)"
           inkscape:connector-curvature="0"
           style="fill:url(#linearGradient29407);fill-rule:evenodd;stroke-width:1pt" />
      </g>
      <text
         sodipodi:linespacing="125%"
         id="text29644-4"
         y="678.10101"
         x="78.867188"
         style="font-size:10px;font-style:normal;font-variant:normal;font-weight:normal;font-stretch:normal;line-height:125%;letter-spacing:0px;word-spacing:0px;fill:#000000;fill-opacity:1;stroke:none;font-family:Arial;-inkscape-font-specification:Arial"
         xml:space="preserve"><tspan
           style="font-size:32px;font-style:normal;font-variant:normal;font-weight:normal;font-stretch:normal;text-align:start;line-height:125%;writing-mode:lr-tb;text-anchor:start;font-family:Arial;-inkscape-font-specification:Arial"
           y="678.10101"
           x="78.867188"
           id="tspan29646-7"
           sodipodi:role="line">DB Data</tspan><tspan
           id="tspan29678"
           style="font-size:32px;font-style:normal;font-variant:normal;font-weight:normal;font-stretch:normal;text-align:start;line-height:125%;writing-mode:lr-tb;text-anchor:start;font-family:Arial;-inkscape-font-specification:Arial"
           y="718.10101"
           x="78.867188"
           sodipodi:role="line">Volume</tspan></text>
    </g>
    <path
       style="fill:none;stroke:#000000;stroke-width:2;stroke-linecap:butt;stroke-linejoin:miter;stroke-miterlimit:4;stroke-opacity:1;stroke-dasharray:none;marker-end:url(#Arrow1Lstart)"
       d="m 381.44131,593.43398 c -157.14762,-0.73456 -155.71919,-0.7149 -155.71919,-0.7149"
       id="path29758"
       inkscape:connector-curvature="0" />
  </g>
</svg>
